<svg width="32" height="47" viewBox="0 0 32 47" fill="none" xmlns="http://www.w3.org/2000/svg">
<path d="M0 16.45C0 7.35549 7.15428 0 16 0C24.8457 0 32 7.35549 32 16.45C32 20.539 30.8571 24.3695 28.7543 27.824C27.6389 29.6951 26.3425 31.4235 25.048 33.1495C23.8225 34.7836 22.5986 36.4154 21.5314 38.164C20.4571 39.9265 19.7029 41.5715 18.8571 43.475C18.7592 43.6965 18.6639 43.9457 18.5642 44.2065C18.0822 45.4672 17.4962 47 16 47C14.5193 47 13.93 45.4987 13.4381 44.2457C13.3302 43.9707 13.2269 43.7076 13.12 43.475C12.2971 41.5715 11.52 39.9265 10.4457 38.164C9.36039 36.374 8.11288 34.7104 6.8664 33.0483C5.59281 31.3499 4.32026 29.653 3.22287 27.824C1.14286 24.3695 0 20.539 0 16.45Z" fill="#006FFD"/>
<g clip-path="url(#clip0_99_6904)">
<path d="M8.61536 21.8507C8.61536 22.7123 8.97536 23.4859 9.53843 24.0244V25.7673C9.53843 26.3059 9.95382 26.7465 10.4615 26.7465H11.3846C11.8923 26.7465 12.3077 26.3059 12.3077 25.7673V24.7882H19.6923V25.7673C19.6923 26.3059 20.1077 26.7465 20.6154 26.7465H21.5384C22.0461 26.7465 22.4615 26.3059 22.4615 25.7673V24.0244C23.0246 23.4859 23.3846 22.7123 23.3846 21.8507V12.059C23.3846 8.63192 20.08 8.14233 16 8.14233C11.92 8.14233 8.61536 8.63192 8.61536 12.059V21.8507ZM11.8461 22.8298C11.08 22.8298 10.4615 22.1738 10.4615 21.3611C10.4615 20.5484 11.08 19.8923 11.8461 19.8923C12.6123 19.8923 13.2307 20.5484 13.2307 21.3611C13.2307 22.1738 12.6123 22.8298 11.8461 22.8298ZM20.1538 22.8298C19.3877 22.8298 18.7692 22.1738 18.7692 21.3611C18.7692 20.5484 19.3877 19.8923 20.1538 19.8923C20.92 19.8923 21.5384 20.5484 21.5384 21.3611C21.5384 22.1738 20.92 22.8298 20.1538 22.8298ZM21.5384 16.9548H10.4615V12.059H21.5384V16.9548Z" fill="white"/>
</g>
<defs>
<clipPath id="clip0_99_6904">
<rect width="22.1538" height="23.5" fill="white" transform="translate(4.9231 6.18408)"/>
</clipPath>
</defs>
</svg>
