<svg width="40" height="29" viewBox="0 0 40 29" fill="none" xmlns="http://www.w3.org/2000/svg">
<g clip-path="url(#clip0_147_3656)">
<path d="M33.3746 4H1.62539C0.727711 4 0 4.71589 0 5.59898V23.401C0 24.2841 0.727711 25 1.62539 25H33.3746C34.2723 25 35 24.2841 35 23.401V5.59898C35 4.71589 34.2723 4 33.3746 4Z" fill="#FFBA33"/>
<path d="M31.3824 8H12.6176C11.7242 8 11 8.67157 11 9.5V14.5C11 15.3284 11.7242 16 12.6176 16H31.3824C32.2758 16 33 15.3284 33 14.5V9.5C33 8.67157 32.2758 8 31.3824 8Z" fill="#3186C4"/>
<path d="M9.28694 29.0001C11.7918 29.0001 13.8224 26.9852 13.8224 24.4997C13.8224 22.0142 11.7918 19.9993 9.28694 19.9993C6.78207 19.9993 4.75146 22.0142 4.75146 24.4997C4.75146 26.9852 6.78207 29.0001 9.28694 29.0001Z" fill="#3186C4"/>
<path d="M9.23291 26.3212C10.217 26.3212 11.0147 25.5296 11.0147 24.5532C11.0147 23.5767 10.217 22.7852 9.23291 22.7852C8.24885 22.7852 7.45111 23.5767 7.45111 24.5532C7.45111 25.5296 8.24885 26.3212 9.23291 26.3212Z" fill="#FFD482"/>
<path d="M25.5931 29.0001C28.098 29.0001 30.1286 26.9852 30.1286 24.4997C30.1286 22.0142 28.098 19.9993 25.5931 19.9993C23.0882 19.9993 21.0576 22.0142 21.0576 24.4997C21.0576 26.9852 23.0882 29.0001 25.5931 29.0001Z" fill="#3186C4"/>
<path d="M25.5391 26.3212C26.5231 26.3212 27.3209 25.5296 27.3209 24.5532C27.3209 23.5767 26.5231 22.7852 25.5391 22.7852C24.555 22.7852 23.7573 23.5767 23.7573 24.5532C23.7573 25.5296 24.555 26.3212 25.5391 26.3212Z" fill="#FFD482"/>
<path d="M7.33333 8H0V16H7.33333C8.25333 16 9 15.328 9 14.5V9.5C9 8.672 8.25333 8 7.33333 8Z" fill="#3186C4"/>
</g>
<defs>
<clipPath id="clip0_147_3656">
<rect width="40" height="29" fill="white"/>
</clipPath>
</defs>
</svg>
